<?xml version="1.0" encoding="iso-8859-1"?>
<svg height="512pt" viewBox="0 -36 512 512" width="512pt" xmlns="http://www.w3.org/2000/svg">
  <path fill="white" d="m10 279.988281h293.996094c-7.878906 15.371094-11.996094 32.367188-11.996094 50.011719 0 60.652344 49.347656 110 110 110s110-49.347656 110-110c0-41.519531-23.347656-79.277344-60-97.988281v-222.011719c0-5.523438-4.476562-10-10-10h-432c-5.523438 0-10 4.476562-10 10v98c0 5.523438 4.476562 10 10 10s10-4.476562 10-10v-88h412v204.144531c-9.699219-2.75-19.742188-4.144531-30-4.144531-33.234375 0-63.867188 14.519531-84.839844 40h-297.160156v-72c0-5.523438-4.476562-10-10-10s-10 4.476562-10 10v82c0 5.523438 4.476562 9.988281 10 9.988281zm392-39.988281c50.109375 0 90 40.6875 90 90 0 49.625-40.375 90-90 90s-90-40.375-90-90c0-48.644531 39.148438-90 90-90zm0 0"/>
  <path fill="white" d="m90 140c10.90625 0 21.417969-3.578125 29.996094-10.019531 8.589844 6.441406 19.101562 10.019531 30.003906 10.019531 27.570312 0 50-22.429688 50-50s-22.429688-50-50-50c-10.902344 0-21.414062 3.578125-30.003906 10.019531-8.582032-6.441406-19.089844-10.019531-29.996094-10.019531-27.570312 0-50 22.429688-50 50s22.429688 50 50 50zm90-50c0 16.542969-13.457031 30-30 30-5.988281 0-11.78125-1.800781-16.675781-5.070312 4.339843-7.53125 6.675781-16.113282 6.675781-24.929688s-2.335938-17.398438-6.675781-24.929688c4.894531-3.269531 10.6875-5.070312 16.675781-5.070312 16.542969 0 30 13.457031 30 30zm-90-30c16.605469 0 30 13.515625 30 30 0 16.507812-13.414062 30-30 30-16.542969 0-30-13.457031-30-30s13.457031-30 30-30zm0 0"/>
  <path fill="white" d="m402 140c5.523438 0 10-4.476562 10-10v-80c0-5.523438-4.476562-10-10-10h-120c-5.523438 0-10 4.476562-10 10v80c0 5.523438 4.476562 10 10 10zm-110-40h60v20h-60zm100 20h-20v-60h20zm-40-60v20h-60v-20zm0 0"/>
  <path fill="white" d="m50 200h352c5.523438 0 10-4.476562 10-10s-4.476562-10-10-10h-352c-5.523438 0-10 4.476562-10 10s4.476562 10 10 10zm0 0"/>
  <path fill="white" d="m50 240h40c5.523438 0 10-4.476562 10-10s-4.476562-10-10-10h-40c-5.523438 0-10 4.476562-10 10s4.476562 10 10 10zm0 0"/>
  <path fill="white" d="m156 220c-5.523438 0-10 4.476562-10 10s4.476562 10 10 10h40c5.523438 0 10-4.476562 10-10s-4.476562-10-10-10zm0 0"/>
  <path fill="white" d="m262 220c-5.523438 0-10 4.476562-10 10s4.476562 10 10 10h40c5.523438 0 10-4.476562 10-10s-4.476562-10-10-10zm0 0"/>
  <path fill="white" d="m366.648438 365.351562c3.90625 3.90625 10.238281 3.90625 14.144531 0l21.207031-21.207031 21.207031 21.207031c3.90625 3.90625 10.238281 3.90625 14.144531 0s3.90625-10.238281 0-14.144531l-21.207031-21.207031 21.207031-21.207031c3.90625-3.90625 3.90625-10.238281 0-14.144531s-10.238281-3.90625-14.144531 0l-21.207031 21.207031-21.207031-21.207031c-3.90625-3.90625-10.238281-3.90625-14.144531 0s-3.90625 10.238281 0 14.144531l21.207031 21.207031-21.207031 21.207031c-3.90625 3.90625-3.90625 10.238281 0 14.144531zm0 0"/>
  <path fill="white" d="m10 158c5.519531 0 10-4.480469 10-10s-4.480469-10-10-10-10 4.480469-10 10 4.480469 10 10 10zm0 0"/>
</svg>
