<?xml version="1.0" encoding="iso-8859-1"?>
<svg height="496pt" viewBox="0 -2 496 496" width="496pt" xmlns="http://www.w3.org/2000/svg">
  <path fill="white" d="m120 395.710938h-64c-13.230469 0-24 10.769531-24 24v16c0 13.234374 10.769531 24 24 24h64c13.230469 0 24-10.765626 24-24v-16c0-13.230469-10.769531-24-24-24zm8 40c0 4.417968-3.59375 8-8 8h-64c-4.40625 0-8-3.582032-8-8v-16c0-4.414063 3.59375-8 8-8h64c4.40625 0 8 3.585937 8 8zm0 0"/>
  <path fill="white" d="m176 163.710938c-4.40625 0-8-3.582032-8-8h-16c0 10.417968 6.710938 19.21875 16 22.527343v17.472657h16v-16h16v-24c0-13.230469-10.769531-24-24-24-4.40625 0-8-3.582032-8-8v-8h8c4.40625 0 8 3.585937 8 8h16c0-10.414063-6.710938-19.214844-16-22.527344v-17.472656h-16v16h-16v24c0 13.234374 10.769531 24 24 24 4.40625 0 8 3.585937 8 8v8zm0 0"/>
  <path fill="white" d="m216 131.710938h16v16h-16zm0 0"/>
  <path fill="white" d="m120 131.710938h16v16h-16zm0 0"/>
  <path fill="white" d="m248 139.710938c0 39.703124-32.304688 72-72 72-16.59375 0-32.792969-5.789063-45.609375-16.304688l-10.152344 12.378906c15.671875 12.847656 35.472657 19.925782 55.761719 19.925782 48.519531 0 88-39.480469 88-88 0-20.277344-7.078125-40.078126-19.929688-55.757813l-12.375 10.144531c10.511719 12.824219 16.304688 29.023438 16.304688 45.613282zm0 0"/>
  <path fill="white" d="m120.304688 185.328125c-10.511719-12.824219-16.304688-29.023437-16.304688-45.617187 0-39.703126 32.304688-72 72-72 16.59375 0 32.792969 5.792968 45.609375 16.304687l10.152344-12.375c-15.671875-12.847656-35.472657-19.929687-55.761719-19.929687-48.519531 0-88 39.480468-88 88 0 20.28125 7.078125 40.082031 19.929688 55.761718zm0 0"/>
  <path fill="white" d="m472 283.710938h-120v-80h-75.121094c4.609375-22.070313 15.808594-42.464844 32.585938-58.160157l6.246094-5.839843-6.246094-5.839844c-23.28125-21.773438-36.015625-52.527344-34.960938-84.390625l.160156-5.136719-6.40625-3.199219-2.027343.070313c-31.824219 1.03125-62.613281-11.6875-84.382813-34.96875l-5.847656-6.246094-5.839844 6.238281c-21.769531 23.28125-52.472656 35.960938-84.398437 34.976563l-8.539063-.277344.28125 8.535156c1.054688 31.855469-11.6875 62.617188-34.960937 84.390625l-6.253907 5.847657 6.246094 5.839843c16.777344 15.695313 27.96875 36.082031 32.578125 58.160157h-75.113281v288h352v-32h120c13.230469 0 24-10.765626 24-24v-128c0-13.230469-10.769531-24-24-24zm0 16c4.40625 0 8 3.585937 8 8v8h-128v-16zm-136-80v48h-148.464844c21.257813-19.71875 49.351563-30.472657 78.710938-29.503907l8.539062.28125-.28125-8.535156c-.113281-3.433594.007813-6.839844.207032-10.234375h61.289062zm-184 64h48v48h-48zm-58.496094-226.503907c30.734375-.992187 60.070313-13.144531 82.496094-34.183593 22.433594 21.046874 51.769531 33.191406 82.511719 34.175781.984375 30.738281 13.136719 60.082031 34.167969 82.503906-21.03125 22.425781-33.183594 51.769531-34.183594 82.503906-30.734375.984375-60.082032 13.144531-82.496094 34.175781-22.433594-21.046874-51.769531-33.191406-82.511719-34.175781-.984375-30.734375-13.136719-60.078125-34.167969-82.503906 21.023438-22.414063 33.183594-51.757813 34.183594-82.496094zm-16.222656 162.503907c.199219 3.394531.320312 6.800781.207031 10.234374l-.160156 5.132813 6.40625 3.203125 2.027344-.074219c29.230469-.960937 57.414062 9.785157 78.6875 29.503907h-148.449219v-48zm-61.28125 256v-192h120v64h80v-64h120v192zm456-32h-120v-112h128v104c0 4.417968-3.59375 8-8 8zm0 0"/>
  <path fill="white" d="m432 363.710938c-5.640625 0-11.144531 1.519531-16 4.367187-4.855469-2.847656-10.359375-4.367187-16-4.367187-17.648438 0-32 14.351562-32 32 0 17.648437 14.351562 32 32 32 5.640625 0 11.144531-1.519532 16-4.367188 4.855469 2.847656 10.359375 4.367188 16 4.367188 17.648438 0 32-14.351563 32-32 0-17.648438-14.351562-32-32-32zm0 48c-4.96875 0-8.527344-2.261719-10.648438-4.167969l-5.351562-4.824219-5.351562 4.824219c-2.121094 1.90625-5.679688 4.167969-10.648438 4.167969-8.824219 0-16-7.175782-16-16 0-8.824219 7.175781-16 16-16 4.96875 0 8.527344 2.265624 10.648438 4.167968l5.351562 4.824219 5.351562-4.824219c2.121094-1.902344 5.679688-4.167968 10.648438-4.167968 8.824219 0 16 7.175781 16 16 0 8.824218-7.175781 16-16 16zm0 0"/>
</svg>